<?xml version="1.0" encoding="UTF-8" standalone="no"?><!DOCTYPE svg PUBLIC "-//W3C//DTD SVG 1.1//EN" "http://www.w3.org/Graphics/SVG/1.1/DTD/svg11.dtd"><svg width="100%" height="100%" viewBox="0 0 62 62" version="1.1" xmlns="http://www.w3.org/2000/svg" xmlns:xlink="http://www.w3.org/1999/xlink" xml:space="preserve" xmlns:serif="http://www.serif.com/" style="fill-rule:evenodd;clip-rule:evenodd;stroke-linecap:round;stroke-linejoin:round;stroke-miterlimit:1.5;"><g><g id="Ebene1"><path d="M36.975,2.266l14.83,16.177l-1.141,32.77l-41.17,1.556l0,-50.503l27.481,-0Z" style="fill:#fff;stroke:#000;stroke-width:0.31px;"/></g><path d="M54.831,16.777l-0,39.689c-0,2.661 -2.161,4.822 -4.822,4.822l-38.578,0c-2.661,0 -4.822,-2.161 -4.822,-4.822l0,-51.644c0,-2.661 2.161,-4.822 4.822,-4.822l26.623,-0l16.777,16.777Zm-18.188,7.43l-4.666,-0l-6.806,23.937l4.667,-0l6.805,-23.937Zm3.698,1.168l-3.049,3.049l7.14,7.139l-6.946,6.946l3.049,3.049l9.994,-9.995l-10.188,-10.188Zm9.479,-6.511l-12.839,-12.839l-0,10.866c-0,1.089 0.884,1.973 1.973,1.973l10.866,-0Zm-28.605,26.694l3.049,-3.049l-7.139,-7.14l6.945,-6.945l-3.049,-3.049l-9.994,9.994l10.188,10.189Z" style="fill:#0076cd;"/></g></svg>