<?xml version="1.0" encoding="UTF-8" standalone="no"?><!DOCTYPE svg PUBLIC "-//W3C//DTD SVG 1.1//EN" "http://www.w3.org/Graphics/SVG/1.1/DTD/svg11.dtd"><svg width="100%" height="100%" viewBox="0 0 899 247" version="1.1" xmlns="http://www.w3.org/2000/svg" xmlns:xlink="http://www.w3.org/1999/xlink" xml:space="preserve" xmlns:serif="http://www.serif.com/" style="fill-rule:evenodd;clip-rule:evenodd;stroke-linejoin:round;stroke-miterlimit:2;"><path id="Text-full-white" serif:id="Text full white" d="M266.078,146.687l0,-78.437l25.313,-0l-0,78.437c-0,7.605 -1.706,14.154 -5.118,19.649c-3.411,5.495 -8.02,9.74 -13.828,12.734c-5.807,2.995 -12.356,4.492 -19.648,4.492c-7.5,0 -14.167,-1.263 -20,-3.789c-5.833,-2.526 -10.404,-6.406 -13.711,-11.64c-3.307,-5.235 -4.961,-11.914 -4.961,-20.039l25.469,-0c-0,4.01 0.508,7.174 1.523,9.492c1.016,2.318 2.513,3.945 4.492,4.883c1.98,0.937 4.375,1.406 7.188,1.406c2.708,-0 5.052,-0.664 7.031,-1.992c1.979,-1.328 3.516,-3.281 4.609,-5.86c1.094,-2.578 1.641,-5.69 1.641,-9.336Z" style="fill:#fff;fill-rule:nonzero;"/><path d="M353.812,158.484c0,-1.562 -0.481,-2.942 -1.445,-4.14c-0.963,-1.198 -2.682,-2.292 -5.156,-3.282c-2.474,-0.989 -5.951,-1.979 -10.43,-2.968c-4.219,-0.886 -8.151,-2.045 -11.797,-3.477c-3.645,-1.432 -6.823,-3.177 -9.531,-5.234c-2.708,-2.057 -4.818,-4.505 -6.328,-7.344c-1.51,-2.838 -2.266,-6.081 -2.266,-9.727c0,-3.541 0.769,-6.901 2.305,-10.078c1.537,-3.177 3.776,-5.989 6.719,-8.437c2.943,-2.448 6.536,-4.375 10.781,-5.781c4.245,-1.407 9.076,-2.11 14.492,-2.11c7.448,0 13.88,1.159 19.297,3.477c5.417,2.318 9.583,5.547 12.5,9.687c2.917,4.141 4.375,8.867 4.375,14.18l-24.375,-0c0,-2.188 -0.417,-4.089 -1.25,-5.703c-0.833,-1.615 -2.109,-2.878 -3.828,-3.789c-1.719,-0.912 -3.984,-1.367 -6.797,-1.367c-2.187,-0 -4.101,0.377 -5.742,1.132c-1.641,0.756 -2.917,1.784 -3.828,3.086c-0.912,1.302 -1.367,2.813 -1.367,4.532c-0,1.198 0.273,2.278 0.82,3.242c0.547,0.963 1.406,1.849 2.578,2.656c1.172,0.807 2.708,1.523 4.609,2.148c1.901,0.625 4.232,1.224 6.993,1.797c5.885,1.094 11.263,2.631 16.132,4.61c4.87,1.979 8.776,4.713 11.719,8.203c2.943,3.489 4.414,8.099 4.414,13.828c0,3.75 -0.846,7.187 -2.539,10.312c-1.693,3.125 -4.127,5.86 -7.305,8.204c-3.177,2.343 -6.979,4.166 -11.406,5.468c-4.427,1.302 -9.427,1.953 -15,1.953c-7.969,0 -14.713,-1.432 -20.234,-4.296c-5.521,-2.865 -9.675,-6.472 -12.461,-10.821c-2.787,-4.349 -4.18,-8.815 -4.18,-13.398l22.891,-0c0.104,2.812 0.82,5.104 2.148,6.875c1.328,1.771 3.06,3.06 5.196,3.867c2.135,0.807 4.531,1.211 7.187,1.211c2.656,-0 4.87,-0.365 6.641,-1.094c1.771,-0.729 3.125,-1.732 4.062,-3.008c0.938,-1.276 1.406,-2.747 1.406,-4.414Z" style="fill:#fff;fill-rule:nonzero;"/><path d="M387.406,140.594l0,-1.641c0,-6.198 0.886,-11.914 2.656,-17.148c1.771,-5.235 4.375,-9.779 7.813,-13.633c3.437,-3.854 7.656,-6.862 12.656,-9.024c5,-2.161 10.729,-3.242 17.188,-3.242c6.562,0 12.357,1.081 17.383,3.242c5.026,2.162 9.257,5.17 12.695,9.024c3.437,3.854 6.042,8.398 7.812,13.633c1.771,5.234 2.657,10.95 2.657,17.148l-0,1.641c-0,6.146 -0.886,11.836 -2.657,17.07c-1.77,5.234 -4.375,9.792 -7.812,13.672c-3.438,3.88 -7.656,6.888 -12.656,9.023c-5,2.136 -10.756,3.203 -17.266,3.203c-6.458,0 -12.214,-1.067 -17.266,-3.203c-5.052,-2.135 -9.297,-5.143 -12.734,-9.023c-3.438,-3.88 -6.042,-8.438 -7.813,-13.672c-1.77,-5.234 -2.656,-10.924 -2.656,-17.07Zm24.453,-1.641l0,1.641c0,3.333 0.274,6.458 0.821,9.375c0.547,2.916 1.445,5.468 2.695,7.656c1.25,2.187 2.904,3.893 4.961,5.117c2.057,1.224 4.57,1.836 7.539,1.836c2.969,0 5.469,-0.612 7.5,-1.836c2.031,-1.224 3.672,-2.93 4.922,-5.117c1.25,-2.188 2.148,-4.74 2.695,-7.656c0.547,-2.917 0.82,-6.042 0.82,-9.375l0,-1.641c0,-3.281 -0.273,-6.367 -0.82,-9.258c-0.547,-2.89 -1.445,-5.455 -2.695,-7.695c-1.25,-2.24 -2.904,-3.984 -4.961,-5.234c-2.057,-1.25 -4.596,-1.875 -7.617,-1.875c-2.917,-0 -5.391,0.625 -7.422,1.875c-2.031,1.25 -3.672,2.994 -4.922,5.234c-1.25,2.24 -2.148,4.805 -2.695,7.695c-0.547,2.891 -0.821,5.977 -0.821,9.258Z" style="fill:#fff;fill-rule:nonzero;"/><path d="M504.984,115.516l0,66.484l-24.453,-0l0,-84.531l22.969,-0l1.484,18.047Zm-3.203,21.25l-6.094,0.156c0,-6.354 0.782,-12.057 2.344,-17.11c1.563,-5.052 3.789,-9.361 6.68,-12.929c2.891,-3.568 6.354,-6.289 10.391,-8.164c4.036,-1.875 8.502,-2.813 13.398,-2.813c3.958,0 7.578,0.573 10.859,1.719c3.282,1.146 6.107,2.982 8.477,5.508c2.37,2.526 4.18,5.859 5.43,10c1.25,4.14 1.875,9.232 1.875,15.273l-0,53.594l-24.532,0l0,-53.672c0,-3.542 -0.494,-6.276 -1.484,-8.203c-0.99,-1.927 -2.435,-3.281 -4.336,-4.062c-1.901,-0.782 -4.206,-1.172 -6.914,-1.172c-2.865,-0 -5.313,0.56 -7.344,1.679c-2.031,1.12 -3.698,2.67 -5,4.649c-1.302,1.979 -2.252,4.297 -2.851,6.953c-0.599,2.656 -0.899,5.521 -0.899,8.594Z" style="fill:#fff;fill-rule:nonzero;"/><path d="M631.312,152c0,-1.927 -0.286,-3.659 -0.859,-5.195c-0.573,-1.537 -1.614,-2.956 -3.125,-4.258c-1.51,-1.302 -3.646,-2.617 -6.406,-3.945c-2.761,-1.329 -6.38,-2.696 -10.86,-4.102c-5.104,-1.667 -9.96,-3.555 -14.57,-5.664c-4.609,-2.109 -8.711,-4.57 -12.305,-7.383c-3.593,-2.812 -6.419,-6.094 -8.476,-9.844c-2.057,-3.75 -3.086,-8.125 -3.086,-13.125c-0,-4.843 1.068,-9.218 3.203,-13.125c2.136,-3.906 5.13,-7.252 8.984,-10.039c3.855,-2.786 8.386,-4.922 13.594,-6.406c5.209,-1.484 10.938,-2.227 17.188,-2.227c8.333,0 15.664,1.472 21.992,4.415c6.328,2.942 11.263,7.057 14.805,12.343c3.541,5.287 5.312,11.42 5.312,18.399l-25.312,-0c-0,-3.073 -0.638,-5.795 -1.914,-8.164c-1.276,-2.37 -3.204,-4.232 -5.782,-5.586c-2.578,-1.354 -5.794,-2.032 -9.648,-2.032c-3.75,0 -6.888,0.56 -9.414,1.68c-2.526,1.12 -4.427,2.643 -5.703,4.57c-1.276,1.928 -1.914,4.037 -1.914,6.329c-0,1.823 0.481,3.476 1.445,4.961c0.963,1.484 2.37,2.864 4.219,4.14c1.849,1.276 4.127,2.487 6.836,3.633c2.708,1.146 5.807,2.24 9.296,3.281c6.094,1.927 11.498,4.063 16.211,6.406c4.714,2.344 8.685,5 11.914,7.969c3.23,2.969 5.665,6.328 7.305,10.078c1.641,3.75 2.461,7.995 2.461,12.735c0,5.052 -0.976,9.531 -2.93,13.437c-1.953,3.906 -4.765,7.227 -8.437,9.961c-3.672,2.735 -8.06,4.805 -13.164,6.211c-5.104,1.406 -10.807,2.109 -17.11,2.109c-5.729,0 -11.38,-0.742 -16.953,-2.226c-5.573,-1.484 -10.612,-3.763 -15.117,-6.836c-4.505,-3.073 -8.099,-6.992 -10.781,-11.758c-2.682,-4.765 -4.024,-10.43 -4.024,-16.992l25.469,-0c0,3.437 0.495,6.341 1.485,8.711c0.989,2.37 2.408,4.284 4.257,5.742c1.849,1.458 4.102,2.5 6.758,3.125c2.656,0.625 5.625,0.938 8.906,0.938c3.803,-0 6.889,-0.534 9.258,-1.602c2.37,-1.068 4.128,-2.539 5.274,-4.414c1.146,-1.875 1.718,-3.958 1.718,-6.25Z" style="fill:#fff;fill-rule:nonzero;"/><path d="M734.281,164.187l31.25,24.766l-15.937,13.594l-30.703,-24.766l15.39,-13.594Zm32.344,-41.562l-0,5.078c-0,8.646 -1.198,16.406 -3.594,23.281c-2.396,6.875 -5.781,12.735 -10.156,17.578c-4.375,4.844 -9.544,8.555 -15.508,11.133c-5.963,2.578 -12.565,3.867 -19.805,3.867c-7.239,0 -13.854,-1.289 -19.843,-3.867c-5.99,-2.578 -11.185,-6.289 -15.586,-11.133c-4.401,-4.843 -7.8,-10.703 -10.196,-17.578c-2.395,-6.875 -3.593,-14.635 -3.593,-23.281l-0,-5.078c-0,-8.646 1.198,-16.419 3.593,-23.32c2.396,-6.901 5.769,-12.774 10.118,-17.618c4.349,-4.843 9.518,-8.554 15.507,-11.132c5.99,-2.578 12.605,-3.868 19.844,-3.868c7.24,0 13.854,1.29 19.844,3.868c5.99,2.578 11.172,6.289 15.547,11.132c4.375,4.844 7.773,10.717 10.195,17.618c2.422,6.901 3.633,14.674 3.633,23.32Zm-25.859,5.078l-0,-5.234c-0,-5.782 -0.508,-10.899 -1.524,-15.352c-1.015,-4.453 -2.526,-8.19 -4.531,-11.211c-2.005,-3.021 -4.466,-5.299 -7.383,-6.836c-2.917,-1.536 -6.224,-2.304 -9.922,-2.304c-3.802,-0 -7.148,0.768 -10.039,2.304c-2.89,1.537 -5.312,3.815 -7.265,6.836c-1.954,3.021 -3.438,6.758 -4.454,11.211c-1.015,4.453 -1.523,9.57 -1.523,15.352l-0,5.234c-0,5.729 0.508,10.82 1.523,15.274c1.016,4.453 2.513,8.216 4.493,11.289c1.979,3.073 4.427,5.39 7.343,6.953c2.917,1.562 6.276,2.343 10.078,2.343c3.698,0 6.993,-0.781 9.883,-2.343c2.891,-1.563 5.326,-3.88 7.305,-6.953c1.979,-3.073 3.477,-6.836 4.492,-11.289c1.016,-4.454 1.524,-9.545 1.524,-15.274Z" style="fill:#fff;fill-rule:nonzero;"/><path d="M856.234,162.312l0,19.688l-57.422,-0l0,-19.688l57.422,0Zm-48.75,-94.062l0,113.75l-25.468,-0l-0,-113.75l25.468,-0Z" style="fill:#fff;fill-rule:nonzero;"/><g id="Construction"></g><g id="Icon-v3" serif:id="Icon v3"><path d="M192,75.926l0,127.574c0,8.555 -6.945,15.5 -15.5,15.5l-124,0c-8.555,0 -15.5,-6.945 -15.5,-15.5l0,-166c0,-8.555 6.945,-15.5 15.5,-15.5l85.574,0l53.926,53.926Zm-58.46,23.882l-15,0l-21.875,76.942l15,-0l21.875,-76.942Zm11.884,3.755l-9.8,9.8l22.949,22.949l-22.325,22.325l9.8,9.8l32.125,-32.125l-32.749,-32.749Zm30.47,-20.928l-41.27,-41.27l0,34.927c0,3.501 2.843,6.343 6.344,6.343l34.926,-0Zm-91.946,85.802l9.8,-9.8l-22.949,-22.949l22.325,-22.325l-9.8,-9.8l-32.125,32.125l32.749,32.749Z" style="fill:#fff;"/></g></svg>