<?xml version="1.0" encoding="UTF-8" standalone="no"?><!DOCTYPE svg PUBLIC "-//W3C//DTD SVG 1.1//EN" "http://www.w3.org/Graphics/SVG/1.1/DTD/svg11.dtd"><svg width="100%" height="100%" viewBox="0 0 96 96" version="1.1" xmlns="http://www.w3.org/2000/svg" xmlns:xlink="http://www.w3.org/1999/xlink" xml:space="preserve" xmlns:serif="http://www.serif.com/" style="fill-rule:evenodd;clip-rule:evenodd;stroke-linejoin:round;stroke-miterlimit:2;"><g id="Ebene1"><path d="M44.6,72.341l-9.878,0c-0.319,-1.367 -0.478,-3.167 -0.478,-5.4c-1.732,2.461 -3.458,4.096 -5.178,4.905c-1.721,0.809 -3.675,1.213 -5.862,1.213c-3.236,0 -5.851,-0.877 -7.844,-2.632c-1.994,-1.754 -2.991,-4.113 -2.991,-7.075c-0,-2.165 0.581,-4.158 1.743,-5.981c1.162,-1.823 3.031,-3.253 5.606,-4.29c2.574,-1.037 7.268,-1.806 14.082,-2.307l-0,-1.982c-0,-3.35 -1.675,-5.025 -5.025,-5.025c-3.577,0 -5.571,1.675 -5.981,5.025l-9.4,-0.889c0.616,-3.919 2.473,-6.699 5.572,-8.34c3.099,-1.64 6.608,-2.461 10.527,-2.461c2.347,0 4.557,0.274 6.631,0.821c2.073,0.546 3.691,1.367 4.853,2.46c1.162,1.094 1.949,2.251 2.359,3.47c0.41,1.219 0.615,3.344 0.615,6.374l-0,15.654c-0,3.008 0.216,5.162 0.649,6.46Zm-10.8,-16.543c-7.133,0.707 -10.699,2.86 -10.699,6.46c0,1.208 0.376,2.251 1.128,3.128c0.752,0.877 1.823,1.316 3.213,1.316c1.8,-0 3.31,-0.746 4.529,-2.239c1.219,-1.492 1.829,-3.332 1.829,-5.52l-0,-3.145Z" style="fill:#7a7a7a;fill-rule:nonzero;"/><path d="M62.545,25.686l-0,16.475c1.823,-3.373 4.671,-5.059 8.545,-5.059c3.964,0 7.098,1.601 9.399,4.802c2.301,3.202 3.452,7.594 3.452,13.177c0,5.377 -1.185,9.718 -3.554,13.022c-2.37,3.304 -5.788,4.956 -10.254,4.956c-2.325,0 -4.216,-0.399 -5.674,-1.196c-1.459,-0.798 -2.928,-2.404 -4.409,-4.819c-0.638,0.66 -1.39,2.426 -2.256,5.297l-5.435,0l0,-46.655l10.186,0Zm-0,32.984c-0,2.415 0.507,4.238 1.521,5.468c1.014,1.231 2.227,1.846 3.64,1.846c1.686,0 3.076,-0.746 4.17,-2.239c1.094,-1.492 1.64,-4.392 1.64,-8.698c0,-4.9 -0.564,-7.976 -1.692,-9.229c-1.127,-1.253 -2.409,-1.88 -3.845,-1.88c-1.663,0 -2.985,0.707 -3.965,2.119c-0.979,1.413 -1.469,3.418 -1.469,6.016l-0,6.597Z" style="fill:#7a7a7a;fill-rule:nonzero;"/><g><rect x="0" y="62.573" width="7.172" height="24.75" style="fill:#7a7a7a;"/><rect x="88.828" y="62.573" width="7.172" height="24.75" style="fill:#7a7a7a;"/><path d="M0,80.151l96,0l-0,7.172l-96,-0l0,-7.172Z" style="fill:#7a7a7a;"/></g></g></svg>