<?xml version="1.0" encoding="UTF-8" standalone="no"?><!DOCTYPE svg PUBLIC "-//W3C//DTD SVG 1.1//EN" "http://www.w3.org/Graphics/SVG/1.1/DTD/svg11.dtd"><svg width="100%" height="100%" viewBox="0 0 96 96" version="1.1" xmlns="http://www.w3.org/2000/svg" xmlns:xlink="http://www.w3.org/1999/xlink" xml:space="preserve" xmlns:serif="http://www.serif.com/" style="fill-rule:evenodd;clip-rule:evenodd;stroke-linejoin:round;stroke-miterlimit:2;"><g id="Ebene1"><path d="M37.117,25.686l14.595,46.655l-11.758,0l-2.837,-9.604l-15.107,-0l-2.94,9.604l-9.57,0l14.936,-46.655l12.681,0Zm-12.476,28.438l9.913,-0l-4.957,-16.372l-4.956,16.372Z" style="fill:#7a7a7a;fill-rule:nonzero;"/><path d="M86.404,72.341l-9.878,0c-0.319,-1.367 -0.478,-3.167 -0.478,-5.4c-1.732,2.461 -3.458,4.096 -5.179,4.905c-1.72,0.809 -3.674,1.213 -5.861,1.213c-3.236,0 -5.851,-0.877 -7.845,-2.632c-1.993,-1.754 -2.99,-4.113 -2.99,-7.075c-0,-2.165 0.581,-4.158 1.743,-5.981c1.162,-1.823 3.03,-3.253 5.605,-4.29c2.575,-1.037 7.269,-1.806 14.082,-2.307l0,-1.982c0,-3.35 -1.674,-5.025 -5.024,-5.025c-3.578,0 -5.571,1.675 -5.982,5.025l-9.399,-0.889c0.615,-3.919 2.472,-6.699 5.571,-8.34c3.099,-1.64 6.608,-2.461 10.528,-2.461c2.347,0 4.557,0.274 6.631,0.821c2.073,0.546 3.691,1.367 4.853,2.46c1.162,1.094 1.948,2.251 2.358,3.47c0.411,1.219 0.616,3.344 0.616,6.374l-0,15.654c-0,3.008 0.216,5.162 0.649,6.46Zm-10.801,-16.543c-7.132,0.707 -10.698,2.86 -10.698,6.46c0,1.208 0.376,2.251 1.128,3.128c0.752,0.877 1.823,1.316 3.213,1.316c1.8,-0 3.31,-0.746 4.529,-2.239c1.219,-1.492 1.828,-3.332 1.828,-5.52l0,-3.145Z" style="fill:#7a7a7a;fill-rule:nonzero;"/></g></svg>