<?xml version="1.0" encoding="UTF-8" standalone="no"?><!DOCTYPE svg PUBLIC "-//W3C//DTD SVG 1.1//EN" "http://www.w3.org/Graphics/SVG/1.1/DTD/svg11.dtd"><svg width="100%" height="100%" viewBox="0 0 1480 1476" version="1.1" xmlns="http://www.w3.org/2000/svg" xmlns:xlink="http://www.w3.org/1999/xlink" xml:space="preserve" xmlns:serif="http://www.serif.com/" style="fill-rule:evenodd;clip-rule:evenodd;stroke-linecap:round;stroke-linejoin:round;stroke-miterlimit:1.5;"><g><path d="M806.413,346.378l10.36,-16.456c2.791,-4.309 6.462,-11.048 10.726,-15.631l-562.438,-0c-69.996,-0 -131.236,38.229 -164.01,94.839c11.917,-4.95 24.981,-7.746 38.733,-7.746l632.113,-0l20.118,-32.087l-520.078,-0c-21.041,-0 -41.301,2.704 -60.186,10.176c-14.027,5.546 -29.017,8.159 -44.097,8.159l-5.226,0c27.549,-27.503 63.395,-41.254 102.633,-41.254l541.352,-0Z" style="fill:#0067fd;fill-rule:nonzero;"/><path d="M1381.78,277.62l-477.409,-0c-18.381,-0 -48.725,34.516 -68.207,64.495l-51.614,82.188l-644.764,-0c-42.859,-0 -78.338,31.812 -78.338,74.671l0,577.565c0,42.859 35.479,81.18 78.338,81.18l1219.3,-0c42.858,-0 77.512,-38.321 77.512,-81.18l0,-577.565c0,-0.871 -0.091,-1.742 -0.137,-2.613c0.046,-1.008 0.137,-2.017 0.137,-3.025l0,-153.697c0,-35.066 -24.432,-62.019 -54.822,-62.019Z" style="fill:#3a4b54;"/></g><g id="Ebene3"><path d="M1048.28,387.363l182.5,0.5l0,205.5l93.5,-0l-188.25,188.25l-188,-188l99.25,-0l1,-206.25Z" style="fill:#fff;stroke:#231f20;stroke-width:0.75px;"/></g></svg>