<?xml version="1.0" encoding="UTF-8" standalone="no"?><!DOCTYPE svg PUBLIC "-//W3C//DTD SVG 1.1//EN" "http://www.w3.org/Graphics/SVG/1.1/DTD/svg11.dtd"><svg width="100%" height="100%" viewBox="0 0 1480 1476" version="1.1" xmlns="http://www.w3.org/2000/svg" xmlns:xlink="http://www.w3.org/1999/xlink" xml:space="preserve" xmlns:serif="http://www.serif.com/" style="fill-rule:evenodd;clip-rule:evenodd;stroke-linejoin:round;stroke-miterlimit:2;"><g id="Ebene4"><circle cx="735.241" cy="737.891" r="639.527" style="fill:#3b4b54;"/></g><g id="Ebene5"><path d="M1061.89,543.858c-0,63.801 -23.226,120.342 -69.676,169.623c-5.942,5.72 -50.232,41.801 -132.871,108.243c-49.692,39.16 -76.698,77.661 -81.019,115.502c-1.081,9.68 -2.161,19.36 -3.241,29.041c-2.161,7.48 -9.992,13.2 -23.496,17.16c-15.663,4.4 -27.816,6.6 -36.458,6.6c-27.546,0 -43.75,-0.66 -48.611,-1.98c-12.963,-3.96 -19.445,-14.52 -19.445,-31.681c0,-52.801 11.073,-94.822 33.218,-126.062c35.648,-37.841 71.026,-75.902 106.135,-114.183c42.129,-45.761 63.194,-89.542 63.194,-131.343c0,-40.92 -14.448,-73.921 -43.345,-99.002c-28.897,-25.08 -68.191,-37.621 -117.882,-37.621c-39.97,0 -84.395,11.441 -133.276,34.321c-48.882,22.881 -72.242,34.321 -70.082,34.321c-16.744,-0 -25.116,-42.241 -25.116,-126.723c0,-6.16 8.102,-13.86 24.306,-23.1c84.8,-47.961 173.921,-71.942 267.362,-71.942c91.282,0 165.819,22.881 223.613,68.642c57.793,45.761 86.69,105.822 86.69,180.184Zm-230.904,598.633c-0,24.64 -9.992,46.201 -29.977,64.681c-19.985,18.48 -44.83,27.721 -74.537,27.721c-29.167,-0 -53.608,-9.241 -73.322,-27.721c-19.715,-18.48 -29.572,-40.041 -29.572,-64.681c-0,-24.641 9.722,-45.871 29.166,-63.692c19.445,-17.82 44.021,-26.73 73.728,-26.73c30.247,-0 55.227,8.91 74.942,26.73c19.715,17.821 29.572,39.051 29.572,63.692Z" style="fill:#fff;fill-rule:nonzero;"/></g></svg>