<?xml version="1.0" encoding="UTF-8" standalone="no"?><!DOCTYPE svg PUBLIC "-//W3C//DTD SVG 1.1//EN" "http://www.w3.org/Graphics/SVG/1.1/DTD/svg11.dtd"><svg width="100%" height="100%" viewBox="0 0 117 148" version="1.1" xmlns="http://www.w3.org/2000/svg" xmlns:xlink="http://www.w3.org/1999/xlink" xml:space="preserve" xmlns:serif="http://www.serif.com/" style="fill-rule:evenodd;clip-rule:evenodd;stroke-linecap:round;stroke-linejoin:round;stroke-miterlimit:1.5;"><g id="Icon-v2" serif:id="Icon v2"><g id="Ebene1"><path d="M73.205,5.462l35.75,39l-2.75,79l-99.25,3.75l0,-121.75l66.25,0Z" style="fill:#0076cd;stroke:#000;stroke-width:0.75px;"/></g><path d="M116.25,40.445l0,95.68c0,6.416 -5.209,11.625 -11.625,11.625l-93,0c-6.416,0 -11.625,-5.209 -11.625,-11.625l0,-124.5c0,-6.416 5.209,-11.625 11.625,-11.625l64.18,0l40.445,40.445Zm-43.845,17.911l-11.25,0l-16.406,57.706l11.25,0l16.406,-57.706Zm8.913,2.816l-7.35,7.35l17.212,17.212l-16.744,16.744l7.35,7.35l24.094,-24.094l-24.562,-24.562Zm22.853,-15.696l-30.953,-30.952l0,26.195c0,2.625 2.132,4.757 4.758,4.757l26.195,0Zm-68.96,64.352l7.35,-7.35l-17.211,-17.212l16.743,-16.744l-7.35,-7.35l-24.093,24.094l24.561,24.562Z" style="fill:#fff;"/></g></svg>