<?xml version="1.0" encoding="UTF-8" standalone="no"?>
<!DOCTYPE svg PUBLIC "-//W3C//DTD SVG 1.1//EN" "http://www.w3.org/Graphics/SVG/1.1/DTD/svg11.dtd">
<svg width="100%" height="100%" viewBox="0 0 838 816" version="1.1" xmlns="http://www.w3.org/2000/svg" xmlns:xlink="http://www.w3.org/1999/xlink" xml:space="preserve" xmlns:serif="http://www.serif.com/" style="fill-rule:evenodd;clip-rule:evenodd;stroke-linejoin:round;stroke-miterlimit:2;">
    <g>
        <g transform="matrix(0.645798,0.645798,-0.567011,0.567011,163.136,-29.2587)">
            <path d="M431,399.88L431,502.12C431,513.092 423.179,522 413.545,522L312.455,522C302.821,522 295,513.092 295,502.12L295,399.88C295,388.908 302.821,380 312.455,380L413.545,380C423.179,380 431,388.908 431,399.88Z" style="fill:rgb(211,164,22);"/>
        </g>
        <g transform="matrix(0.645798,0.645798,-0.567011,0.567011,480.155,-345.736)">
            <path d="M431,399.88L431,502.12C431,513.092 423.179,522 413.545,522L312.455,522C302.821,522 295,513.092 295,502.12L295,399.88C295,388.908 302.821,380 312.455,380L413.545,380C423.179,380 431,388.908 431,399.88Z" style="fill:rgb(211,164,22);"/>
        </g>
        <g transform="matrix(0,0.913296,-0.801875,0,883.665,-28.7414)">
            <path d="M431,399.88L431,502.12C431,513.092 423.179,522 413.545,522L312.455,522C302.821,522 295,513.092 295,502.12L295,399.88C295,388.908 302.821,380 312.455,380L413.545,380C423.179,380 431,388.908 431,399.88Z" style="fill:rgb(211,164,22);"/>
        </g>
        <g transform="matrix(0,0.913296,-0.801875,0,442.579,-25.3563)">
            <path d="M431,399.88L431,502.12C431,513.092 423.179,522 413.545,522L312.455,522C302.821,522 295,513.092 295,502.12L295,399.88C295,388.908 302.821,380 312.455,380L413.545,380C423.179,380 431,388.908 431,399.88Z" style="fill:rgb(211,164,22);"/>
        </g>
        <g transform="matrix(-0.645798,0.645798,-0.567011,-0.567011,633.298,166.265)">
            <path d="M431,399.88L431,502.12C431,513.092 423.179,522 413.545,522L312.455,522C302.821,522 295,513.092 295,502.12L295,399.88C295,388.908 302.821,380 312.455,380L413.545,380C423.179,380 431,388.908 431,399.88Z" style="fill:rgb(211,164,22);"/>
        </g>
        <g transform="matrix(-0.645798,0.645798,-0.567011,-0.567011,949.004,482.457)">
            <path d="M431,399.88L431,502.12C431,513.092 423.179,522 413.545,522L312.455,522C302.821,522 295,513.092 295,502.12L295,399.88C295,388.908 302.821,380 312.455,380L413.545,380C423.179,380 431,388.908 431,399.88Z" style="fill:rgb(211,164,22);"/>
        </g>
        <g transform="matrix(0.913296,1.04661e-16,-5.23306e-17,0.801875,-31.9854,-281.339)">
            <path d="M431,399.88L431,502.12C431,513.092 423.179,522 413.545,522L312.455,522C302.821,522 295,513.092 295,502.12L295,399.88C295,388.908 302.821,380 312.455,380L413.545,380C423.179,380 431,388.908 431,399.88Z" style="fill:rgb(211,164,22);"/>
        </g>
        <g transform="matrix(0.913296,1.04661e-16,-5.23306e-17,0.801875,-32.3711,157.118)">
            <path d="M431,399.88L431,502.12C431,513.092 423.179,522 413.545,522L312.455,522C302.821,522 295,513.092 295,502.12L295,399.88C295,388.908 302.821,380 312.455,380L413.545,380C423.179,380 431,388.908 431,399.88Z" style="fill:rgb(211,164,22);"/>
        </g>
        <g transform="matrix(5.31489,1.91311e-16,-3.04536e-16,1.46575,-1476.96,27.3967)">
            <path d="M431,405.56L431,496.44C431,510.547 427.841,522 423.951,522L302.049,522C298.159,522 295,510.547 295,496.44L295,405.56C295,391.453 298.159,380 302.049,380L423.951,380C427.841,380 431,391.453 431,405.56Z" style="fill:rgb(211,164,22);"/>
        </g>
        <g transform="matrix(2.30656,1.91311e-16,-1.32163e-16,1.46575,-181.311,-29.1655)">
            <path d="M268.434,380L414.757,380C423.722,380 431,391.453 431,405.56L431,494.481L417.921,494.481L417.921,411.709C417.921,406.632 415.302,402.51 412.076,402.51L291.208,402.51C290.859,402.492 290.488,402.491 290.096,402.51L289.308,402.51C281.759,402.148 275.764,391.534 274.973,390.29L268.434,380Z" style="fill:rgb(211,164,22);"/>
        </g>
        <g transform="matrix(2.95465,0,0,2.95465,-881.711,-889.216)">
            <path d="M400.5,329C441.618,329 475,362.382 475,403.5C475,444.618 441.618,478 400.5,478C359.382,478 326,444.618 326,403.5C326,362.382 359.382,329 400.5,329ZM400.181,352.929C372.27,352.929 349.61,375.589 349.61,403.5C349.61,431.411 372.27,454.071 400.181,454.071C428.092,454.071 450.752,431.411 450.752,403.5C450.752,375.589 428.092,352.929 400.181,352.929Z" style="fill:rgb(211,164,22);"/>
        </g>
    </g>
    <g transform="matrix(0.867285,0,0,0.585262,-3.51727,229.281)">
        <path d="M227.104,836.185C227.104,832.755 226.76,829.672 226.072,826.938C225.384,824.203 224.133,821.677 222.319,819.36C220.505,817.042 217.94,814.702 214.624,812.338C211.309,809.974 206.961,807.54 201.581,805.038C195.451,802.071 189.618,798.711 184.082,794.957C178.545,791.202 173.619,786.822 169.303,781.816C164.986,776.811 161.593,770.971 159.122,764.296C156.651,757.622 155.415,749.835 155.415,740.936C155.415,732.315 156.698,724.528 159.263,717.576C161.827,710.623 165.424,704.667 170.053,699.708C174.683,694.748 180.125,690.948 186.38,688.306C192.636,685.664 199.517,684.343 207.024,684.343C217.033,684.343 225.837,686.962 233.438,692.199C241.038,697.437 246.965,704.76 251.219,714.169C255.473,723.578 257.6,734.493 257.6,746.915L227.198,746.915C227.198,741.446 226.432,736.602 224.899,732.384C223.366,728.167 221.052,724.853 217.955,722.442C214.859,720.032 210.996,718.827 206.367,718.827C201.863,718.827 198.094,719.824 195.06,721.817C192.026,723.81 189.743,726.521 188.21,729.951C186.678,733.381 185.911,737.135 185.911,741.214C185.911,744.459 186.49,747.402 187.647,750.044C188.804,752.686 190.493,755.142 192.714,757.413C194.935,759.684 197.672,761.84 200.925,763.879C204.178,765.918 207.9,767.865 212.091,769.719C219.41,773.149 225.9,776.95 231.561,781.121C237.222,785.293 241.992,790.02 245.871,795.304C249.749,800.588 252.674,806.567 254.644,813.242C256.615,819.916 257.6,827.471 257.6,835.907C257.6,844.898 256.427,852.871 254.081,859.823C251.735,866.775 248.357,872.685 243.947,877.552C239.537,882.418 234.267,886.103 228.136,888.606C222.006,891.109 215.156,892.36 207.587,892.36C200.706,892.36 193.918,891.04 187.225,888.398C180.532,885.756 174.479,881.7 169.068,876.231C163.657,870.762 159.341,863.786 156.119,855.304C152.898,846.822 151.287,836.741 151.287,825.061L181.876,825.061C181.876,831.179 182.471,836.347 183.659,840.565C184.848,844.782 186.552,848.189 188.773,850.785C190.994,853.38 193.699,855.234 196.89,856.347C200.08,857.459 203.646,858.015 207.587,858.015C212.153,858.015 215.86,857.065 218.706,855.165C221.552,853.264 223.664,850.646 225.04,847.309C226.416,843.971 227.104,840.263 227.104,836.185Z" style="fill:white;fill-rule:nonzero;"/>
        <path d="M297.385,687.124L324.128,777.228L351.058,687.124L384.087,687.124L339.704,816.44L339.704,889.579L308.645,889.579L308.645,816.44L264.168,687.124L297.385,687.124Z" style="fill:white;fill-rule:nonzero;"/>
        <path d="M464.69,836.185C464.69,832.755 464.346,829.672 463.658,826.938C462.97,824.203 461.719,821.677 459.904,819.36C458.09,817.042 455.526,814.702 452.21,812.338C448.895,809.974 444.547,807.54 439.167,805.038C433.037,802.071 427.204,798.711 421.667,794.957C416.131,791.202 411.205,786.822 406.889,781.816C402.572,776.811 399.179,770.971 396.708,764.296C394.237,757.622 393.001,749.835 393.001,740.936C393.001,732.315 394.284,724.528 396.848,717.576C399.413,710.623 403.01,704.667 407.639,699.708C412.268,694.748 417.711,690.948 423.966,688.306C430.222,685.664 437.103,684.343 444.61,684.343C454.618,684.343 463.423,686.962 471.024,692.199C478.624,697.437 484.551,704.76 488.805,714.169C493.059,723.578 495.186,734.493 495.186,746.915L464.784,746.915C464.784,741.446 464.017,736.602 462.485,732.384C460.952,728.167 458.638,724.853 455.541,722.442C452.445,720.032 448.582,718.827 443.953,718.827C439.449,718.827 435.68,719.824 432.646,721.817C429.612,723.81 427.329,726.521 425.796,729.951C424.263,733.381 423.497,737.135 423.497,741.214C423.497,744.459 424.076,747.402 425.233,750.044C426.39,752.686 428.079,755.142 430.3,757.413C432.521,759.684 435.258,761.84 438.51,763.879C441.763,765.918 445.485,767.865 449.677,769.719C456.996,773.149 463.486,776.95 469.147,781.121C474.808,785.293 479.578,790.02 483.457,795.304C487.335,800.588 490.259,806.567 492.23,813.242C494.2,819.916 495.186,827.471 495.186,835.907C495.186,844.898 494.013,852.871 491.667,859.823C489.321,866.775 485.943,872.685 481.533,877.552C477.123,882.418 471.853,886.103 465.722,888.606C459.592,891.109 452.742,892.36 445.173,892.36C438.292,892.36 431.504,891.04 424.811,888.398C418.117,885.756 412.065,881.7 406.654,876.231C401.243,870.762 396.927,863.786 393.705,855.304C390.483,846.822 388.873,836.741 388.873,825.061L419.462,825.061C419.462,831.179 420.057,836.347 421.245,840.565C422.434,844.782 424.138,848.189 426.359,850.785C428.58,853.38 431.285,855.234 434.476,856.347C437.666,857.459 441.232,858.015 445.173,858.015C449.739,858.015 453.446,857.065 456.292,855.165C459.138,853.264 461.249,850.646 462.626,847.309C464.002,843.971 464.69,840.263 464.69,836.185Z" style="fill:white;fill-rule:nonzero;"/>
        <path d="M576.727,687.124L576.727,889.579L546.231,889.579L546.231,687.124L576.727,687.124ZM618.295,687.124L618.295,722.303L505.507,722.303L505.507,687.124L618.295,687.124Z" style="fill:white;fill-rule:nonzero;"/>
        <path d="M726.203,854.539L726.203,889.579L653.482,889.579L653.482,854.539L726.203,854.539ZM663.898,687.124L663.898,889.579L633.308,889.579L633.308,687.124L663.898,687.124ZM716.82,768.607L716.82,802.535L653.482,802.535L653.482,768.607L716.82,768.607ZM726.297,687.124L726.297,722.303L653.482,722.303L653.482,687.124L726.297,687.124Z" style="fill:white;fill-rule:nonzero;"/>
        <path d="M755.761,687.124L781.096,687.124L813.937,831.874L846.685,687.124L872.02,687.124L824.165,889.579L803.616,889.579L755.761,687.124ZM741.123,687.124L766.927,687.124L771.712,837.158L771.712,889.579L741.123,889.579L741.123,687.124ZM860.854,687.124L886.752,687.124L886.752,889.579L856.068,889.579L856.068,837.158L860.854,687.124Z" style="fill:white;fill-rule:nonzero;"/>
    </g>
    <g transform="matrix(1,0,0,1,-22.7609,-51.0816)">
        <g transform="matrix(166.667,0,0,166.667,798.239,801)">
        </g>
        <text x="145px" y="801px" style="font-family:'Roboto-ExtraBold', 'Roboto';font-weight:800;font-size:166.667px;fill:white;">SY<tspan x="351.055px " y="801px ">S</tspan>TEM</text>
    </g>
</svg>
