<?xml version="1.0" encoding="UTF-8" standalone="no"?><!DOCTYPE svg PUBLIC "-//W3C//DTD SVG 1.1//EN" "http://www.w3.org/Graphics/SVG/1.1/DTD/svg11.dtd"><svg width="100%" height="100%" viewBox="0 0 838 816" version="1.1" xmlns="http://www.w3.org/2000/svg" xmlns:xlink="http://www.w3.org/1999/xlink" xml:space="preserve" xmlns:serif="http://www.serif.com/" style="fill-rule:evenodd;clip-rule:evenodd;stroke-linejoin:round;stroke-miterlimit:2;"><g opacity="0.73"><g><path d="M214.739,475.817l-57.972,57.971c-6.221,6.221 -16.323,6.221 -22.544,-0l-65.284,-65.284c-6.222,-6.222 -6.221,-16.323 -0,-22.545l57.971,-57.971c6.221,-6.221 16.323,-6.221 22.545,0l65.283,65.284c6.222,6.222 6.222,16.323 0.001,22.545Z" style="fill:#a3a3a3;"/></g><g><path d="M531.758,159.339l-57.972,57.972c-6.221,6.221 -16.323,6.221 -22.544,-0.001l-65.284,-65.283c-6.222,-6.222 -6.221,-16.324 -0,-22.545l57.971,-57.971c6.221,-6.221 16.323,-6.222 22.545,-0l65.283,65.284c6.222,6.221 6.222,16.323 0.001,22.544Z" style="fill:#a3a3a3;"/></g><g><path d="M563.011,364.889l-81.983,0c-8.799,0 -15.942,-7.143 -15.942,-15.941l0,-92.325c0,-8.799 7.143,-15.942 15.942,-15.942l81.983,-0c8.798,-0 15.942,7.143 15.942,15.942l-0,92.325c-0,8.798 -7.144,15.941 -15.942,15.941Z" style="fill:#a3a3a3;"/></g><g><path d="M121.925,368.274l-81.983,0c-8.799,0 -15.942,-7.143 -15.942,-15.941l0,-92.325c0,-8.799 7.143,-15.942 15.942,-15.942l81.983,0c8.798,0 15.942,7.143 15.942,15.942l-0,92.325c-0,8.798 -7.144,15.941 -15.942,15.941Z" style="fill:#a3a3a3;"/></g><g><path d="M128.223,217.868l-57.972,-57.972c-6.221,-6.221 -6.221,-16.323 0.001,-22.544l65.283,-65.284c6.222,-6.222 16.324,-6.221 22.545,-0l57.971,57.971c6.221,6.221 6.222,16.323 0,22.545l-65.284,65.283c-6.221,6.222 -16.323,6.222 -22.544,0.001Z" style="fill:#a3a3a3;"/></g><g><path d="M443.929,534.06l-57.972,-57.972c-6.221,-6.221 -6.221,-16.323 0.001,-22.544l65.283,-65.284c6.222,-6.222 16.324,-6.221 22.545,-0l57.971,57.971c6.221,6.221 6.222,16.323 0,22.545l-65.284,65.283c-6.221,6.222 -16.323,6.222 -22.544,0.001Z" style="fill:#a3a3a3;"/></g><g><path d="M361.645,39.315l0,81.983c0,8.799 -7.143,15.942 -15.941,15.942l-92.325,-0c-8.799,-0 -15.942,-7.143 -15.942,-15.942l-0,-81.983c-0,-8.798 7.143,-15.941 15.942,-15.941l92.325,-0c8.798,-0 15.941,7.143 15.941,15.941Z" style="fill:#a3a3a3;"/></g><g><path d="M361.259,477.772l0,81.983c0,8.799 -7.142,15.942 -15.941,15.942l-92.325,-0c-8.799,-0 -15.942,-7.143 -15.942,-15.942l0,-81.983c0,-8.798 7.143,-15.941 15.942,-15.941l92.325,-0c8.799,-0 15.941,7.143 15.941,15.941Z" style="fill:#a3a3a3;"/></g><g><path d="M813.758,621.846l-0,133.208c-0,20.677 -16.79,37.464 -37.465,37.464l-647.896,0c-20.675,0 -37.464,-16.787 -37.464,-37.464l-0,-133.208c-0,-20.677 16.789,-37.464 37.464,-37.464l647.896,-0c20.675,-0 37.465,16.787 37.465,37.464Z" style="fill:#a3a3a3;"/></g><g><path d="M437.848,527.82l337.503,-0c20.678,-0 37.465,16.787 37.465,37.464l0,130.336l-30.167,0l-0,-121.323c-0,-7.442 -6.041,-13.483 -13.482,-13.483l-278.789,-0c-0.805,-0.027 -1.661,-0.028 -2.565,-0l-1.818,-0c-17.412,-0.531 -31.24,-16.089 -33.064,-17.912l-15.083,-15.083Z" style="fill:#a3a3a3;"/></g><g><path d="M301.626,82.864c121.49,-0 220.122,98.632 220.122,220.121c-0,121.49 -98.632,220.122 -220.122,220.122c-121.489,-0 -220.121,-98.632 -220.121,-220.122c-0,-121.489 98.632,-220.121 220.121,-220.121Zm-0.942,70.702c-82.467,-0 -149.42,66.952 -149.42,149.419c0,82.468 66.953,149.42 149.42,149.42c82.467,-0 149.419,-66.952 149.419,-149.42c0,-82.467 -66.952,-149.419 -149.419,-149.419Z" style="fill:#a3a3a3;"/></g></g><g><path d="M193.447,718.668c-0,-2.007 -0.299,-3.812 -0.895,-5.412c-0.597,-1.6 -1.682,-3.079 -3.255,-4.435c-1.574,-1.356 -3.798,-2.726 -6.674,-4.109c-2.875,-1.384 -6.646,-2.809 -11.312,-4.273c-5.317,-1.736 -10.375,-3.703 -15.177,-5.9c-4.802,-2.198 -9.074,-4.761 -12.817,-7.691c-3.744,-2.929 -6.687,-6.347 -8.83,-10.254c-2.143,-3.906 -3.215,-8.463 -3.215,-13.671c-0,-5.046 1.113,-9.603 3.337,-13.672c2.224,-4.069 5.343,-7.555 9.358,-10.457c4.016,-2.903 8.735,-5.127 14.16,-6.674c5.426,-1.546 11.394,-2.319 17.905,-2.319c8.68,-0 16.316,1.533 22.908,4.598c6.591,3.065 11.732,7.351 15.421,12.858c3.69,5.507 5.534,11.895 5.534,19.165l-26.367,-0c0,-3.201 -0.664,-6.036 -1.994,-8.504c-1.329,-2.469 -3.336,-4.408 -6.022,-5.819c-2.685,-1.411 -6.036,-2.116 -10.05,-2.116c-3.907,0 -7.175,0.584 -9.807,1.75c-2.631,1.166 -4.611,2.753 -5.941,4.761c-1.328,2.007 -1.993,4.204 -1.993,6.591c-0,1.9 0.502,3.622 1.505,5.168c1.004,1.547 2.468,2.984 4.395,4.313c1.926,1.329 4.3,2.591 7.121,3.784c2.821,1.194 6.049,2.333 9.684,3.418c6.348,2.008 11.976,4.232 16.886,6.673c4.91,2.442 9.047,5.209 12.411,8.301c3.363,3.093 5.9,6.592 7.609,10.499c1.709,3.906 2.563,8.327 2.563,13.265c0,5.262 -1.017,9.928 -3.052,13.997c-2.034,4.068 -4.964,7.527 -8.789,10.376c-3.824,2.848 -8.395,5.004 -13.712,6.469c-5.317,1.465 -11.258,2.197 -17.822,2.197c-5.968,0 -11.855,-0.772 -17.66,-2.318c-5.805,-1.547 -11.054,-3.92 -15.747,-7.121c-4.693,-3.201 -8.436,-7.284 -11.231,-12.248c-2.793,-4.964 -4.19,-10.864 -4.19,-17.7l26.529,-0c0,3.58 0.516,6.605 1.546,9.074c1.032,2.468 2.509,4.462 4.436,5.981c1.926,1.519 4.272,2.604 7.039,3.255c2.767,0.651 5.86,0.977 9.278,0.977c3.96,-0 7.175,-0.556 9.643,-1.668c2.468,-1.113 4.3,-2.645 5.494,-4.598c1.193,-1.954 1.79,-4.124 1.79,-6.511Z" style="fill:#fff;fill-rule:nonzero;"/><path d="M254.4,631.429l23.194,52.734l23.356,-52.734l28.646,-0l-38.493,75.683l-0,42.806l-26.937,-0l-0,-42.806l-38.574,-75.683l28.808,-0Z" style="fill:#fff;fill-rule:nonzero;"/><path d="M399.501,718.668c0,-2.007 -0.298,-3.812 -0.895,-5.412c-0.596,-1.6 -1.681,-3.079 -3.255,-4.435c-1.574,-1.356 -3.797,-2.726 -6.673,-4.109c-2.875,-1.384 -6.646,-2.809 -11.312,-4.273c-5.317,-1.736 -10.376,-3.703 -15.178,-5.9c-4.801,-2.198 -9.073,-4.761 -12.817,-7.691c-3.744,-2.929 -6.686,-6.347 -8.829,-10.254c-2.143,-3.906 -3.215,-8.463 -3.215,-13.671c-0,-5.046 1.112,-9.603 3.336,-13.672c2.225,-4.069 5.344,-7.555 9.359,-10.457c4.015,-2.903 8.735,-5.127 14.16,-6.674c5.426,-1.546 11.394,-2.319 17.904,-2.319c8.68,-0 16.317,1.533 22.909,4.598c6.591,3.065 11.732,7.351 15.421,12.858c3.689,5.507 5.534,11.895 5.534,19.165l-26.367,-0c-0,-3.201 -0.665,-6.036 -1.994,-8.504c-1.33,-2.469 -3.336,-4.408 -6.022,-5.819c-2.686,-1.411 -6.036,-2.116 -10.05,-2.116c-3.907,0 -7.176,0.584 -9.807,1.75c-2.631,1.166 -4.611,2.753 -5.941,4.761c-1.329,2.007 -1.994,4.204 -1.994,6.591c0,1.9 0.502,3.622 1.506,5.168c1.003,1.547 2.468,2.984 4.394,4.313c1.927,1.329 4.3,2.591 7.121,3.784c2.821,1.194 6.049,2.333 9.685,3.418c6.348,2.008 11.976,4.232 16.886,6.673c4.91,2.442 9.047,5.209 12.411,8.301c3.363,3.093 5.899,6.592 7.608,10.499c1.709,3.906 2.564,8.327 2.564,13.265c0,5.262 -1.017,9.928 -3.052,13.997c-2.035,4.068 -4.964,7.527 -8.789,10.376c-3.825,2.848 -8.395,5.004 -13.713,6.469c-5.316,1.465 -11.257,2.197 -17.821,2.197c-5.968,0 -11.855,-0.772 -17.66,-2.318c-5.806,-1.547 -11.054,-3.92 -15.747,-7.121c-4.693,-3.201 -8.436,-7.284 -11.231,-12.248c-2.794,-4.964 -4.191,-10.864 -4.191,-17.7l26.53,-0c-0,3.58 0.516,6.605 1.546,9.074c1.031,2.468 2.509,4.462 4.435,5.981c1.927,1.519 4.273,2.604 7.04,3.255c2.767,0.651 5.86,0.977 9.278,0.977c3.96,-0 7.175,-0.556 9.643,-1.668c2.468,-1.113 4.299,-2.645 5.493,-4.598c1.194,-1.954 1.79,-4.124 1.79,-6.511Z" style="fill:#fff;fill-rule:nonzero;"/><path d="M496.669,631.429l0,118.489l-26.448,-0l-0,-118.489l26.448,-0Zm36.052,-0l-0,20.588l-97.82,0l0,-20.588l97.82,-0Z" style="fill:#fff;fill-rule:nonzero;"/><path d="M626.308,729.41l-0,20.508l-63.07,-0l-0,-20.508l63.07,0Zm-54.036,-97.981l-0,118.489l-26.531,-0l0,-118.489l26.531,-0Zm45.898,47.688l-0,19.857l-54.932,0l-0,-19.857l54.932,0Zm8.219,-47.688l0,20.588l-63.151,0l-0,-20.588l63.151,-0Z" style="fill:#fff;fill-rule:nonzero;"/><path d="M651.943,631.429l21.973,-0l28.482,84.716l28.402,-84.716l21.973,-0l-41.504,118.489l-17.822,-0l-41.504,-118.489Zm-12.695,-0l22.379,-0l4.15,87.809l-0,30.68l-26.529,-0l-0,-118.489Zm103.84,-0l22.461,-0l0,118.489l-26.611,-0l-0,-30.68l4.15,-87.809Z" style="fill:#fff;fill-rule:nonzero;"/></g><g><g><text x="122.239px" y="749.918px" style="font-family:'Roboto-ExtraBold', 'Roboto';font-weight:800;font-size:166.667px;fill:#fff;">SY</text><text x="328.294px" y="749.918px" style="font-family:'Roboto-ExtraBold', 'Roboto';font-weight:800;font-size:166.667px;fill:#fff;">STEM</text></g></g></svg>