<?xml version="1.0" encoding="UTF-8" standalone="no"?><!DOCTYPE svg PUBLIC "-//W3C//DTD SVG 1.1//EN" "http://www.w3.org/Graphics/SVG/1.1/DTD/svg11.dtd"><svg width="100%" height="100%" viewBox="0 0 899 247" version="1.1" xmlns="http://www.w3.org/2000/svg" xmlns:xlink="http://www.w3.org/1999/xlink" xml:space="preserve" xmlns:serif="http://www.serif.com/" style="fill-rule:evenodd;clip-rule:evenodd;stroke-linecap:round;stroke-linejoin:round;stroke-miterlimit:1.5;"><g id="Text-default" serif:id="Text default" transform="matrix(1,0,0,1,-48,52)"><g transform="matrix(160,0,0,160,259,130)"><path d="M0.344,-0.221l0,-0.49l0.158,0l0,0.49c0,0.048 -0.01,0.089 -0.032,0.123c-0.021,0.034 -0.05,0.061 -0.086,0.08c-0.036,0.018 -0.077,0.028 -0.123,0.028c-0.047,-0 -0.088,-0.008 -0.125,-0.024c-0.036,-0.016 -0.065,-0.04 -0.085,-0.073c-0.021,-0.032 -0.031,-0.074 -0.031,-0.125l0.159,0c-0,0.025 0.003,0.045 0.009,0.059c0.007,0.015 0.016,0.025 0.028,0.031c0.013,0.006 0.028,0.009 0.045,0.009c0.017,-0 0.032,-0.004 0.044,-0.013c0.013,-0.008 0.022,-0.02 0.029,-0.036c0.007,-0.016 0.01,-0.036 0.01,-0.059Z" style="fill-rule:nonzero;"/></g><g transform="matrix(160,0,0,160,348.688,130)"><path d="M0.332,-0.147c0,-0.01 -0.003,-0.018 -0.009,-0.026c-0.006,-0.007 -0.017,-0.014 -0.032,-0.02c-0.016,-0.007 -0.037,-0.013 -0.065,-0.019c-0.027,-0.005 -0.051,-0.013 -0.074,-0.022c-0.023,-0.009 -0.043,-0.019 -0.06,-0.032c-0.017,-0.013 -0.03,-0.029 -0.039,-0.046c-0.01,-0.018 -0.014,-0.038 -0.014,-0.061c-0,-0.022 0.004,-0.043 0.014,-0.063c0.01,-0.02 0.024,-0.037 0.042,-0.053c0.018,-0.015 0.041,-0.027 0.067,-0.036c0.027,-0.009 0.057,-0.013 0.091,-0.013c0.046,-0 0.087,0.007 0.121,0.022c0.033,0.014 0.059,0.034 0.078,0.06c0.018,0.026 0.027,0.056 0.027,0.089l-0.152,-0c-0,-0.014 -0.003,-0.026 -0.008,-0.036c-0.005,-0.01 -0.013,-0.018 -0.024,-0.024c-0.011,-0.005 -0.025,-0.008 -0.043,-0.008c-0.013,-0 -0.025,0.002 -0.035,0.007c-0.011,0.005 -0.019,0.011 -0.024,0.019c-0.006,0.008 -0.009,0.018 -0.009,0.029c0,0.007 0.002,0.014 0.005,0.02c0.004,0.006 0.009,0.011 0.016,0.016c0.008,0.006 0.017,0.01 0.029,0.014c0.012,0.004 0.027,0.008 0.044,0.011c0.037,0.007 0.07,0.017 0.101,0.029c0.03,0.012 0.055,0.029 0.073,0.051c0.018,0.022 0.027,0.051 0.027,0.087c0,0.023 -0.005,0.045 -0.015,0.064c-0.011,0.02 -0.026,0.037 -0.046,0.051c-0.02,0.015 -0.044,0.026 -0.071,0.035c-0.028,0.008 -0.059,0.012 -0.094,0.012c-0.05,-0 -0.092,-0.009 -0.127,-0.027c-0.034,-0.018 -0.06,-0.041 -0.077,-0.068c-0.018,-0.027 -0.027,-0.055 -0.027,-0.083l0.144,-0c0,0.017 0.005,0.031 0.013,0.043c0.008,0.011 0.019,0.019 0.032,0.024c0.014,0.005 0.029,0.007 0.045,0.007c0.017,0 0.031,-0.002 0.042,-0.007c0.011,-0.004 0.019,-0.01 0.025,-0.018c0.006,-0.008 0.009,-0.018 0.009,-0.028Z" style="fill-rule:nonzero;"/></g><g transform="matrix(160,0,0,160,430.797,130)"><path d="M0.029,-0.259l-0,-0.01c-0,-0.039 0.005,-0.075 0.016,-0.107c0.011,-0.033 0.028,-0.061 0.049,-0.085c0.022,-0.025 0.048,-0.043 0.079,-0.057c0.032,-0.013 0.067,-0.02 0.108,-0.02c0.041,-0 0.077,0.007 0.108,0.02c0.032,0.014 0.058,0.032 0.08,0.057c0.021,0.024 0.038,0.052 0.049,0.085c0.011,0.032 0.016,0.068 0.016,0.107l0,0.01c0,0.039 -0.005,0.074 -0.016,0.107c-0.011,0.033 -0.028,0.061 -0.049,0.085c-0.022,0.025 -0.048,0.043 -0.079,0.057c-0.032,0.013 -0.068,0.02 -0.108,0.02c-0.041,-0 -0.077,-0.007 -0.108,-0.02c-0.032,-0.014 -0.058,-0.032 -0.08,-0.057c-0.021,-0.024 -0.038,-0.052 -0.049,-0.085c-0.011,-0.033 -0.016,-0.068 -0.016,-0.107Zm0.153,-0.01l-0,0.01c-0,0.021 0.001,0.041 0.005,0.059c0.003,0.018 0.009,0.034 0.017,0.048c0.007,0.013 0.018,0.024 0.031,0.032c0.012,0.007 0.028,0.011 0.047,0.011c0.018,0 0.034,-0.004 0.047,-0.011c0.012,-0.008 0.023,-0.019 0.03,-0.032c0.008,-0.014 0.014,-0.03 0.017,-0.048c0.004,-0.018 0.005,-0.038 0.005,-0.059l0,-0.01c0,-0.021 -0.001,-0.04 -0.005,-0.058c-0.003,-0.018 -0.009,-0.034 -0.017,-0.048c-0.007,-0.014 -0.018,-0.025 -0.031,-0.033c-0.012,-0.008 -0.028,-0.011 -0.047,-0.011c-0.018,-0 -0.034,0.003 -0.047,0.011c-0.012,0.008 -0.023,0.019 -0.03,0.033c-0.008,0.014 -0.014,0.03 -0.017,0.048c-0.004,0.018 -0.005,0.037 -0.005,0.058Z" style="fill-rule:nonzero;"/></g><g transform="matrix(160,0,0,160,520.953,130)"><path d="M0.2,-0.416l0,0.416l-0.153,-0l0,-0.528l0.144,-0l0.009,0.112Zm-0.02,0.133l-0.038,0.001c0,-0.039 0.005,-0.075 0.015,-0.107c0.01,-0.031 0.023,-0.058 0.041,-0.08c0.019,-0.023 0.04,-0.04 0.065,-0.052c0.026,-0.011 0.054,-0.017 0.084,-0.017c0.025,-0 0.048,0.003 0.068,0.011c0.021,0.007 0.038,0.018 0.053,0.034c0.015,0.016 0.026,0.037 0.034,0.063c0.008,0.025 0.012,0.057 0.012,0.095l-0,0.335l-0.154,-0l0,-0.335c0,-0.023 -0.003,-0.04 -0.009,-0.052c-0.006,-0.012 -0.015,-0.02 -0.027,-0.025c-0.012,-0.005 -0.026,-0.007 -0.043,-0.007c-0.018,-0 -0.033,0.003 -0.046,0.01c-0.013,0.007 -0.023,0.017 -0.031,0.029c-0.009,0.012 -0.014,0.027 -0.018,0.044c-0.004,0.016 -0.006,0.034 -0.006,0.053Z" style="fill-rule:nonzero;"/></g><g transform="matrix(160,0,0,160,610.953,130)"><path d="M0.427,-0.188c0,-0.012 -0.002,-0.022 -0.005,-0.032c-0.004,-0.01 -0.01,-0.018 -0.02,-0.027c-0.009,-0.008 -0.022,-0.016 -0.04,-0.024c-0.017,-0.009 -0.04,-0.017 -0.068,-0.026c-0.031,-0.01 -0.062,-0.022 -0.091,-0.035c-0.028,-0.013 -0.054,-0.029 -0.077,-0.046c-0.022,-0.018 -0.04,-0.039 -0.053,-0.062c-0.012,-0.023 -0.019,-0.051 -0.019,-0.082c0,-0.03 0.007,-0.058 0.02,-0.082c0.014,-0.024 0.032,-0.045 0.056,-0.063c0.024,-0.017 0.053,-0.031 0.085,-0.04c0.033,-0.009 0.069,-0.014 0.108,-0.014c0.052,0 0.098,0.009 0.137,0.028c0.04,0.018 0.071,0.044 0.093,0.077c0.022,0.033 0.033,0.071 0.033,0.115l-0.158,0c-0,-0.019 -0.004,-0.036 -0.012,-0.051c-0.008,-0.015 -0.02,-0.026 -0.036,-0.035c-0.016,-0.008 -0.037,-0.013 -0.061,-0.013c-0.023,0 -0.043,0.004 -0.059,0.011c-0.015,0.007 -0.027,0.016 -0.035,0.028c-0.008,0.012 -0.012,0.026 -0.012,0.04c-0,0.011 0.003,0.022 0.009,0.031c0.006,0.009 0.015,0.018 0.026,0.026c0.012,0.008 0.026,0.015 0.043,0.023c0.017,0.007 0.036,0.014 0.058,0.02c0.038,0.012 0.072,0.025 0.101,0.04c0.03,0.015 0.055,0.031 0.075,0.05c0.02,0.019 0.035,0.039 0.046,0.063c0.01,0.023 0.015,0.05 0.015,0.08c-0,0.031 -0.006,0.059 -0.018,0.084c-0.013,0.024 -0.03,0.045 -0.053,0.062c-0.023,0.017 -0.05,0.03 -0.082,0.039c-0.032,0.008 -0.068,0.013 -0.107,0.013c-0.036,-0 -0.071,-0.005 -0.106,-0.014c-0.035,-0.009 -0.067,-0.024 -0.095,-0.043c-0.028,-0.019 -0.05,-0.044 -0.067,-0.073c-0.017,-0.03 -0.025,-0.066 -0.025,-0.107l0.159,0c-0,0.022 0.003,0.04 0.009,0.055c0.006,0.015 0.015,0.027 0.027,0.036c0.011,0.009 0.025,0.015 0.042,0.019c0.017,0.004 0.035,0.006 0.056,0.006c0.023,0 0.043,-0.003 0.058,-0.01c0.014,-0.007 0.025,-0.016 0.033,-0.027c0.007,-0.012 0.01,-0.025 0.01,-0.039Z" style="fill:#0076cf;fill-rule:nonzero;"/></g><g transform="matrix(160,0,0,160,710.25,130)"><path d="M0.45,-0.111l0.196,0.154l-0.1,0.085l-0.192,-0.154l0.096,-0.085Zm0.202,-0.26l0,0.032c0,0.054 -0.007,0.102 -0.022,0.145c-0.015,0.043 -0.036,0.08 -0.064,0.11c-0.027,0.03 -0.059,0.053 -0.097,0.07c-0.037,0.016 -0.078,0.024 -0.123,0.024c-0.046,-0 -0.087,-0.008 -0.124,-0.024c-0.038,-0.017 -0.07,-0.04 -0.098,-0.07c-0.027,-0.03 -0.048,-0.067 -0.063,-0.11c-0.015,-0.043 -0.023,-0.091 -0.023,-0.145l0,-0.032c0,-0.054 0.008,-0.103 0.023,-0.146c0.015,-0.043 0.036,-0.08 0.063,-0.11c0.027,-0.03 0.059,-0.053 0.097,-0.07c0.037,-0.016 0.078,-0.024 0.124,-0.024c0.045,0 0.086,0.008 0.124,0.024c0.037,0.017 0.07,0.04 0.097,0.07c0.027,0.03 0.049,0.067 0.064,0.11c0.015,0.043 0.022,0.092 0.022,0.146Zm-0.161,0.032l-0,-0.033c-0,-0.036 -0.003,-0.068 -0.01,-0.096c-0.006,-0.028 -0.016,-0.051 -0.028,-0.07c-0.013,-0.019 -0.028,-0.033 -0.046,-0.043c-0.018,-0.009 -0.039,-0.014 -0.062,-0.014c-0.024,-0 -0.045,0.005 -0.063,0.014c-0.018,0.01 -0.033,0.024 -0.045,0.043c-0.013,0.019 -0.022,0.042 -0.028,0.07c-0.007,0.028 -0.01,0.06 -0.01,0.096l0,0.033c0,0.035 0.003,0.067 0.01,0.095c0.006,0.028 0.015,0.051 0.028,0.071c0.012,0.019 0.027,0.033 0.046,0.043c0.018,0.01 0.039,0.015 0.063,0.015c0.023,-0 0.043,-0.005 0.061,-0.015c0.019,-0.01 0.034,-0.024 0.046,-0.043c0.012,-0.02 0.022,-0.043 0.028,-0.071c0.007,-0.028 0.01,-0.06 0.01,-0.095Z" style="fill:#0076cf;fill-rule:nonzero;"/></g><g transform="matrix(160,0,0,160,820.641,130)"><path d="M0.522,-0.123l0,0.123l-0.358,-0l-0,-0.123l0.358,-0Zm-0.304,-0.588l-0,0.711l-0.159,-0l-0,-0.711l0.159,0Z" style="fill:#0076cf;fill-rule:nonzero;"/></g></g><g id="Construction"></g><g id="Icon-v2" serif:id="Icon v2"><g id="Ebene1"><path d="M134.607,29.283l47.667,52l-3.667,105.333l-132.333,5l-0,-162.333l88.333,0Z" style="fill:#fff;stroke:#000;stroke-width:1px;"/></g><path d="M192,75.926l0,127.574c0,8.555 -6.945,15.5 -15.5,15.5l-124,0c-8.555,0 -15.5,-6.945 -15.5,-15.5l0,-166c0,-8.555 6.945,-15.5 15.5,-15.5l85.574,0l53.926,53.926Zm-58.46,23.882l-15,0l-21.875,76.942l15,-0l21.875,-76.942Zm11.884,3.755l-9.8,9.8l22.949,22.949l-22.325,22.325l9.8,9.8l32.125,-32.125l-32.749,-32.749Zm30.47,-20.928l-41.27,-41.27l0,34.927c0,3.501 2.843,6.343 6.344,6.343l34.926,-0Zm-91.946,85.802l9.8,-9.8l-22.949,-22.949l22.325,-22.325l-9.8,-9.8l-32.125,32.125l32.749,32.749Z" style="fill:#0076cd;"/></g><g><path d="M554.5,33.464l-0,34.392c-0,6.327 -5.137,11.464 -11.464,11.464l-193.574,-0c-6.328,-0 -11.464,-5.137 -11.464,-11.464l-0,-34.392c-0,-6.327 5.136,-11.464 11.464,-11.464l193.574,0c6.327,0 11.464,5.137 11.464,11.464Z" style="fill:#d63384;"/><path d="M374.936,62.34l-11.904,-0l-2.309,7.428l-9.788,-0l13.059,-38.216l4.976,-0l0,0.026l0.028,-0.026l4.976,-0l13.086,38.216l-9.787,-0l-2.337,-7.428Zm-9.76,-6.824l7.616,-0l-3.739,-11.864l-0.165,-0l-3.712,11.864Z" style="fill:#fff;fill-rule:nonzero;"/><path d="M392.734,69.768l0,-38.216l14.653,-0c4.711,-0 8.651,1.465 11.822,4.396c3.171,2.931 4.756,6.689 4.756,11.274l0,6.876c0,4.602 -1.585,8.364 -4.756,11.287c-3.171,2.922 -7.111,4.383 -11.822,4.383l-14.653,-0Zm9.293,-31.392l-0,24.568l5.36,-0c2.108,-0 3.845,-0.823 5.21,-2.468c1.366,-1.644 2.048,-3.77 2.048,-6.378l0,-6.929c0,-2.572 -0.682,-4.681 -2.048,-6.325c-1.365,-1.645 -3.102,-2.468 -5.21,-2.468l-5.36,0Z" style="fill:#fff;fill-rule:nonzero;"/><path d="M453.475,58.298l0.165,-0l9.045,-26.746l12.289,-0l-0,38.216l-9.293,-0l0,-24.62l-0.165,-0.026l-8.824,24.646l-6.241,-0l-8.66,-24.279l-0.165,0.027l-0,24.252l-9.292,-0l-0,-38.216l12.179,-0l8.962,26.746Z" style="fill:#fff;fill-rule:nonzero;"/><rect x="484.744" y="31.552" width="9.265" height="38.216" style="fill:#fff;fill-rule:nonzero;"/><path d="M537.155,69.768l-9.265,-0l-14.653,-24.043l-0.165,0.053l0,23.99l-9.292,-0l-0,-38.216l9.292,-0l14.653,24.016l0.165,-0.052l0,-23.964l9.265,-0l-0,38.216Z" style="fill:#fff;fill-rule:nonzero;"/></g></svg>